ffmpeg started on 2025-06-19 at 11:45:38
Report written to "D:\Convert\FFMetrics\reports\psnr_report-6.txt"
Log level: 32
Command line:
ffmpeg -hide_banner -nostdin -i "G:\\\xc0\xed\xe8\xec\xe5\\[\xd2\xee\xef-4]\\Fate\\\xc0\xef\xee\xea\xf0\xe8\xf4\\Fate_Apocrypha_[03]_[AniLibria_TV]_[HDTVRip_720p]_HEVC.mkv" -i "G:\\\xc0\xed\xe8\xec\xe5\\[\xd2\xee\xef-4]\\Fate\\\xc0\xef\xee\xea\xf0\xe8\xf4\\Fate_Apocrypha_[03]_[AniLibria_TV]_[HDTVRip_720p].mkv" -lavfi "[0:v]settb=AVTB,setpts=PTS-STARTPTS,format=pix_fmts=yuv420p10,fps=24000/1001,scale=1280:720:flags=bicubic[main];[1:v]settb=AVTB,setpts=PTS-STARTPTS,format=pix_fmts=yuv420p,fps=24000/1001,scale=1280:720:flags=bicubic[ref];[main][ref]psnr=eof_action=endall:stats_file='D\\:/Convert/FFMetrics/logs/psnr_logfile-6.txt'" -f null -
Input #0, matroska,webm, from 'G:\Аниме\[Топ-4]\Fate\Апокриф\Fate_Apocrypha_[03]_[AniLibria_TV]_[HDTVRip_720p]_HEVC.mkv':
  Metadata:
    ENCODER         : Lavf61.7.100
  Duration: 00:24:00.17, start: -0.021000, bitrate: 757 kb/s
  Stream #0:0(jpn): Video: hevc (Main 10), yuv420p10le(tv, bt709, progressive), 1280x720 [SAR 1:1 DAR 16:9], 23.81 fps, 23.81 tbr, 1k tbn (default)
      Metadata:
        ENCODER         : Lavc61.19.100 libx265
        BPS             : 558792
        DURATION        : 00:24:00.054000000
        NUMBER_OF_FRAMES: 34526
        NUMBER_OF_BYTES : 100586477
        _STATISTICS_WRITING_APP: mkvpropedit v66.0.0 ('Josie') 64-bit
        _STATISTICS_WRITING_DATE_UTC: 2025-06-16 15:01:44
        _STATISTICS_TAGS: BPS DURATION NUMBER_OF_FRAMES NUMBER_OF_BYTES
  Stream #0:1(rus): Audio: aac (LC), 48000 Hz, stereo, fltp (default)
      Metadata:
        title           : Ados Amikiri Anzen Hekomi Silv
        ENCODER         : Lavc61.19.100 aac
        BPS             : 194492
        DURATION        : 00:24:00.149000000
        NUMBER_OF_FRAMES: 67508
        NUMBER_OF_BYTES : 35012332
        _STATISTICS_WRITING_APP: mkvpropedit v66.0.0 ('Josie') 64-bit
        _STATISTICS_WRITING_DATE_UTC: 2025-06-16 15:01:44
        _STATISTICS_TAGS: BPS DURATION NUMBER_OF_FRAMES NUMBER_OF_BYTES
  Stream #0:2(rus): Subtitle: ass (ssa) (default) (forced)
      Metadata:
        title           : Надписи
        BPS             : 432
        DURATION        : 00:00:03.000000000
        NUMBER_OF_FRAMES: 2
        NUMBER_OF_BYTES : 162
        _STATISTICS_WRITING_APP: mkvpropedit v66.0.0 ('Josie') 64-bit
        _STATISTICS_WRITING_DATE_UTC: 2025-06-16 15:01:44
        _STATISTICS_TAGS: BPS DURATION NUMBER_OF_FRAMES NUMBER_OF_BYTES
  Stream #0:3(rus): Subtitle: ass (ssa)
      Metadata:
        title           : Полные
        BPS             : 153
        DURATION        : 00:22:06.390000000
        NUMBER_OF_FRAMES: 265
        NUMBER_OF_BYTES : 25514
        _STATISTICS_WRITING_APP: mkvpropedit v66.0.0 ('Josie') 64-bit
        _STATISTICS_WRITING_DATE_UTC: 2025-06-16 15:01:44
        _STATISTICS_TAGS: BPS DURATION NUMBER_OF_FRAMES NUMBER_OF_BYTES
Input #1, matroska,webm, from 'G:\Аниме\[Топ-4]\Fate\Апокриф\Fate_Apocrypha_[03]_[AniLibria_TV]_[HDTVRip_720p].mkv':
  Metadata:
    encoder         : libebml v1.3.0 + libmatroska v1.4.1
    creation_time   : 2017-08-07T05:25:49.000000Z
  Duration: 00:24:00.15, start: 0.000000, bitrate: 2204 kb/s
  Stream #1:0: Video: h264 (Main), yuv420p(tv, bt709, progressive), 1280x720, SAR 1:1 DAR 16:9, 23.81 fps, 23.81 tbr, 1k tbn (default)
      Metadata:
        _STATISTICS_WRITING_APP: mkvmerge v7.3.0 ('Nouages') 64bit built on Oct 22 2014 18:53:34
        _STATISTICS_WRITING_APP-eng: mkvmerge v7.3.0 ('Nouages') 64bit built on Oct 22 2014 18:53:34
        _STATISTICS_WRITING_DATE_UTC: 2017-08-07 05:25:49
        _STATISTICS_WRITING_DATE_UTC-eng: 2017-08-07 05:25:49
        _STATISTICS_TAGS: BPS DURATION NUMBER_OF_FRAMES NUMBER_OF_BYTES
        _STATISTICS_TAGS-eng: BPS DURATION NUMBER_OF_FRAMES NUMBER_OF_BYTES
        BPS             : 1795135
        BPS-eng         : 1795135
        DURATION        : 00:24:00.065000000
        DURATION-eng    : 00:24:00.065000000
        NUMBER_OF_FRAMES: 34526
        NUMBER_OF_FRAMES-eng: 34526
        NUMBER_OF_BYTES : 323138987
        NUMBER_OF_BYTES-eng: 323138987
  Stream #1:1(rus): Audio: aac (LC), 48000 Hz, stereo, fltp (default)
      Metadata:
        title           : Ados Amikiri Anzen Hekomi Silv
        BPS             : 192091
        BPS-eng         : 192091
        DURATION        : 00:24:00.149000000
        DURATION-eng    : 00:24:00.149000000
        NUMBER_OF_FRAMES: 67507
        NUMBER_OF_FRAMES-eng: 67507
        NUMBER_OF_BYTES : 34579990
        NUMBER_OF_BYTES-eng: 34579990
        _STATISTICS_WRITING_APP: mkvmerge v7.3.0 ('Nouages') 64bit built on Oct 22 2014 18:53:34
        _STATISTICS_WRITING_APP-eng: mkvmerge v7.3.0 ('Nouages') 64bit built on Oct 22 2014 18:53:34
        _STATISTICS_WRITING_DATE_UTC: 2017-08-07 05:25:49
        _STATISTICS_WRITING_DATE_UTC-eng: 2017-08-07 05:25:49
        _STATISTICS_TAGS: BPS DURATION NUMBER_OF_FRAMES NUMBER_OF_BYTES
        _STATISTICS_TAGS-eng: BPS DURATION NUMBER_OF_FRAMES NUMBER_OF_BYTES
  Stream #1:2(jpn): Audio: aac (LC), 48000 Hz, stereo, fltp
      Metadata:
        title           : Оригинал
        _STATISTICS_WRITING_APP: mkvmerge v7.3.0 ('Nouages') 64bit built on Oct 22 2014 18:53:34
        _STATISTICS_WRITING_APP-eng: mkvmerge v7.3.0 ('Nouages') 64bit built on Oct 22 2014 18:53:34
        _STATISTICS_WRITING_DATE_UTC: 2017-08-07 05:25:49
        _STATISTICS_WRITING_DATE_UTC-eng: 2017-08-07 05:25:49
        _STATISTICS_TAGS: BPS DURATION NUMBER_OF_FRAMES NUMBER_OF_BYTES
        _STATISTICS_TAGS-eng: BPS DURATION NUMBER_OF_FRAMES NUMBER_OF_BYTES
        BPS             : 212530
        BPS-eng         : 212530
        DURATION        : 00:24:00.106000000
        DURATION-eng    : 00:24:00.106000000
        NUMBER_OF_FRAMES: 67505
        NUMBER_OF_FRAMES-eng: 67505
        NUMBER_OF_BYTES : 38258351
        NUMBER_OF_BYTES-eng: 38258351
  Stream #1:3(rus): Subtitle: ass (ssa) (default) (forced)
      Metadata:
        title           : Надписи
        _STATISTICS_WRITING_APP: mkvmerge v7.3.0 ('Nouages') 64bit built on Oct 22 2014 18:53:34
        _STATISTICS_WRITING_APP-eng: mkvmerge v7.3.0 ('Nouages') 64bit built on Oct 22 2014 18:53:34
        _STATISTICS_WRITING_DATE_UTC: 2017-08-07 05:25:49
        _STATISTICS_WRITING_DATE_UTC-eng: 2017-08-07 05:25:49
        _STATISTICS_TAGS: BPS DURATION NUMBER_OF_FRAMES NUMBER_OF_BYTES
        _STATISTICS_TAGS-eng: BPS DURATION NUMBER_OF_FRAMES NUMBER_OF_BYTES
        BPS             : 432
        BPS-eng         : 432
        DURATION        : 00:00:03.000000000
        DURATION-eng    : 00:00:03.000000000
        NUMBER_OF_FRAMES: 2
        NUMBER_OF_FRAMES-eng: 2
        NUMBER_OF_BYTES : 162
        NUMBER_OF_BYTES-eng: 162
  Stream #1:4(rus): Subtitle: ass (ssa)
      Metadata:
        title           : Полные
        _STATISTICS_WRITING_APP: mkvmerge v7.3.0 ('Nouages') 64bit built on Oct 22 2014 18:53:34
        _STATISTICS_WRITING_APP-eng: mkvmerge v7.3.0 ('Nouages') 64bit built on Oct 22 2014 18:53:34
        _STATISTICS_WRITING_DATE_UTC: 2017-08-07 05:25:49
        _STATISTICS_WRITING_DATE_UTC-eng: 2017-08-07 05:25:49
        _STATISTICS_TAGS: BPS DURATION NUMBER_OF_FRAMES NUMBER_OF_BYTES
        _STATISTICS_TAGS-eng: BPS DURATION NUMBER_OF_FRAMES NUMBER_OF_BYTES
        BPS             : 153
        BPS-eng         : 153
        DURATION        : 00:22:06.390000000
        DURATION-eng    : 00:22:06.390000000
        NUMBER_OF_FRAMES: 265
        NUMBER_OF_FRAMES-eng: 265
        NUMBER_OF_BYTES : 25514
        NUMBER_OF_BYTES-eng: 25514
  Stream #1:5: Attachment: ttf
      Metadata:
        filename        : ALBR.ttf
        mimetype        : application/x-truetype-font
  Stream #1:6: Attachment: ttf
      Metadata:
        filename        : 9511(1).ttf
        mimetype        : application/x-truetype-font
Stream mapping:
  Stream #0:0 (hevc) -> settb:default
  Stream #1:0 (h264) -> settb:default
  psnr:default -> Stream #0:0 (wrapped_avframe)
  Stream #0:1 -> #0:1 (aac (native) -> pcm_s16le (native))
Output #0, null, to 'pipe:':
  Metadata:
    encoder         : Lavf61.7.100
  Stream #0:0: Video: wrapped_avframe, yuv420p10le(tv, bt709, progressive), 1280x720 [SAR 1:1 DAR 16:9], q=2-31, 200 kb/s, 23.98 fps, 23.98 tbn
      Metadata:
        encoder         : Lavc61.19.100 wrapped_avframe
  Stream #0:1(rus): Audio: pcm_s16le, 48000 Hz, stereo, s16, 1536 kb/s (default)
      Metadata:
        title           : Ados Amikiri Anzen Hekomi Silv
        _STATISTICS_TAGS: BPS DURATION NUMBER_OF_FRAMES NUMBER_OF_BYTES
        BPS             : 194492
        DURATION        : 00:24:00.149000000
        NUMBER_OF_FRAMES: 67508
        NUMBER_OF_BYTES : 35012332
        _STATISTICS_WRITING_APP: mkvpropedit v66.0.0 ('Josie') 64-bit
        _STATISTICS_WRITING_DATE_UTC: 2025-06-16 15:01:44
        encoder         : Lavc61.19.100 pcm_s16le
frame=  478 fps=0.0 q=-0.0 size=N/A time=00:00:19.93 bitrate=N/A speed=38.5x    frame=  924 fps=899 q=-0.0 size=N/A time=00:00:38.53 bitrate=N/A speed=37.5x    frame= 1366 fps=889 q=-0.0 size=N/A time=00:00:56.97 bitrate=N/A speed=37.1x    frame= 1888 fps=916 q=-0.0 size=N/A time=00:01:18.74 bitrate=N/A speed=38.2x    frame= 2393 fps=931 q=-0.0 size=N/A time=00:01:39.80 bitrate=N/A speed=38.8x    frame= 2935 fps=948 q=-0.0 size=N/A time=00:02:02.41 bitrate=N/A speed=39.5x    frame= 3315 fps=919 q=-0.0 size=N/A time=00:02:18.26 bitrate=N/A speed=38.3x    frame= 3804 fps=922 q=-0.0 size=N/A time=00:02:38.65 bitrate=N/A speed=38.4x    frame= 4254 fps=917 q=-0.0 size=N/A time=00:02:57.42 bitrate=N/A speed=38.3x    frame= 4661 fps=906 q=-0.0 size=N/A time=00:03:14.40 bitrate=N/A speed=37.8x    frame= 5016 fps=885 q=-0.0 size=N/A time=00:03:29.20 bitrate=N/A speed=36.9x    frame= 5518 fps=893 q=-0.0 size=N/A time=00:03:50.14 bitrate=N/A speed=37.2x    frame= 6039 fps=902 q=-0.0 size=N/A time=00:04:11.87 bitrate=N/A speed=37.6x    frame= 6418 fps=889 q=-0.0 size=N/A time=00:04:27.68 bitrate=N/A speed=37.1x    frame= 6896 fps=893 q=-0.0 size=N/A time=00:04:47.62 bitrate=N/A speed=37.2x    frame= 7478 fps=907 q=-0.0 size=N/A time=00:05:11.89 bitrate=N/A speed=37.8x    frame= 8001 fps=913 q=-0.0 size=N/A time=00:05:33.70 bitrate=N/A speed=38.1x    frame= 8567 fps=924 q=-0.0 size=N/A time=00:05:57.31 bitrate=N/A speed=38.5x    frame= 9136 fps=933 q=-0.0 size=N/A time=00:06:21.04 bitrate=N/A speed=38.9x    frame= 9435 fps=916 q=-0.0 size=N/A time=00:06:33.51 bitrate=N/A speed=38.2x    frame= 9990 fps=923 q=-0.0 size=N/A time=00:06:56.66 bitrate=N/A speed=38.5x    frame=10547 fps=930 q=-0.0 size=N/A time=00:07:19.89 bitrate=N/A speed=38.8x    frame=10881 fps=918 q=-0.0 size=N/A time=00:07:33.82 bitrate=N/A speed=38.3x    frame=11506 fps=930 q=-0.0 size=N/A time=00:07:59.89 bitrate=N/A speed=38.8x    frame=12148 fps=943 q=-0.0 size=N/A time=00:08:26.67 bitrate=N/A speed=39.3x    frame=12762 fps=953 q=-0.0 size=N/A time=00:08:52.28 bitrate=N/A speed=39.7x    frame=13294 fps=955 q=-0.0 size=N/A time=00:09:14.47 bitrate=N/A speed=39.8x    frame=13777 fps=955 q=-0.0 size=N/A time=00:09:34.61 bitrate=N/A speed=39.8x    frame=14195 fps=949 q=-0.0 size=N/A time=00:09:52.04 bitrate=N/A speed=39.6x    frame=14570 fps=942 q=-0.0 size=N/A time=00:10:07.69 bitrate=N/A speed=39.3x    frame=15043 fps=941 q=-0.0 size=N/A time=00:10:27.41 bitrate=N/A speed=39.2x    frame=15604 fps=945 q=-0.0 size=N/A time=00:10:50.81 bitrate=N/A speed=39.4x    frame=16051 fps=943 q=-0.0 size=N/A time=00:11:09.46 bitrate=N/A speed=39.3x    frame=16464 fps=938 q=-0.0 size=N/A time=00:11:26.68 bitrate=N/A speed=39.1x    frame=16908 fps=936 q=-0.0 size=N/A time=00:11:45.20 bitrate=N/A speed=  39x    frame=17505 fps=943 q=-0.0 size=N/A time=00:12:10.10 bitrate=N/A speed=39.3x    frame=18015 fps=943 q=-0.0 size=N/A time=00:12:31.37 bitrate=N/A speed=39.3x    frame=18554 fps=946 q=-0.0 size=N/A time=00:12:53.85 bitrate=N/A speed=39.5x    frame=19072 fps=948 q=-0.0 size=N/A time=00:13:15.46 bitrate=N/A speed=39.5x    frame=19642 fps=952 q=-0.0 size=N/A time=00:13:39.23 bitrate=N/A speed=39.7x    frame=20128 fps=951 q=-0.0 size=N/A time=00:13:59.50 bitrate=N/A speed=39.7x    frame=20592 fps=950 q=-0.0 size=N/A time=00:14:18.85 bitrate=N/A speed=39.6x    frame=21154 fps=953 q=-0.0 size=N/A time=00:14:42.29 bitrate=N/A speed=39.8x    frame=21732 fps=958 q=-0.0 size=N/A time=00:15:06.40 bitrate=N/A speed=39.9x    frame=22273 fps=959 q=-0.0 size=N/A time=00:15:28.96 bitrate=N/A speed=  40x    frame=22776 fps=960 q=-0.0 size=N/A time=00:15:49.94 bitrate=N/A speed=  40x    frame=23246 fps=959 q=-0.0 size=N/A time=00:16:09.55 bitrate=N/A speed=  40x    frame=23815 fps=962 q=-0.0 size=N/A time=00:16:33.28 bitrate=N/A speed=40.1x    frame=24294 fps=961 q=-0.0 size=N/A time=00:16:53.26 bitrate=N/A speed=40.1x    frame=24842 fps=963 q=-0.0 size=N/A time=00:17:16.11 bitrate=N/A speed=40.2x    frame=25425 fps=967 q=-0.0 size=N/A time=00:17:40.43 bitrate=N/A speed=40.3x    frame=25902 fps=966 q=-0.0 size=N/A time=00:18:00.32 bitrate=N/A speed=40.3x    frame=26443 fps=967 q=-0.0 size=N/A time=00:18:22.89 bitrate=N/A speed=40.3x    frame=27020 fps=970 q=-0.0 size=N/A time=00:18:46.95 bitrate=N/A speed=40.5x    frame=27669 fps=975 q=-0.0 size=N/A time=00:19:14.02 bitrate=N/A speed=40.7x    frame=28171 fps=975 q=-0.0 size=N/A time=00:19:34.96 bitrate=N/A speed=40.7x    frame=28739 fps=977 q=-0.0 size=N/A time=00:19:58.65 bitrate=N/A speed=40.8x    frame=29210 fps=976 q=-0.0 size=N/A time=00:20:18.30 bitrate=N/A speed=40.7x    frame=29812 fps=980 q=-0.0 size=N/A time=00:20:43.40 bitrate=N/A speed=40.9x    frame=30400 fps=982 q=-0.0 size=N/A time=00:21:07.93 bitrate=N/A speed=  41x    frame=30885 fps=982 q=-0.0 size=N/A time=00:21:28.16 bitrate=N/A speed=40.9x    frame=31297 fps=979 q=-0.0 size=N/A time=00:21:45.34 bitrate=N/A speed=40.8x    frame=31861 fps=981 q=-0.0 size=N/A time=00:22:08.86 bitrate=N/A speed=40.9x    frame=32338 fps=980 q=-0.0 size=N/A time=00:22:28.76 bitrate=N/A speed=40.9x    frame=32661 fps=974 q=-0.0 size=N/A time=00:22:42.23 bitrate=N/A speed=40.6x    frame=33115 fps=973 q=-0.0 size=N/A time=00:23:01.17 bitrate=N/A speed=40.6x    frame=33497 fps=969 q=-0.0 size=N/A time=00:23:17.10 bitrate=N/A speed=40.4x    frame=33824 fps=964 q=-0.0 size=N/A time=00:23:30.74 bitrate=N/A speed=40.2x    frame=34173 fps=960 q=-0.0 size=N/A time=00:23:45.29 bitrate=N/A speed=  40x    [Parsed_psnr_10 @ 0000020a59ffabc0] PSNR y:37.077126 u:46.306620 v:45.909075 average:38.574471 min:6.683164 max:64.427528
[out#0/null @ 0000020a528522c0] video:14836KiB audio:270032KiB subtitle:0KiB other streams:0KiB global headers:0KiB muxing overhead: unknown
frame=34527 fps=960 q=-0.0 Lsize=N/A time=00:24:00.06 bitrate=N/A speed=40.1x    
